<svg width="10" height="12" viewBox="0 0 10 12" fill="none" xmlns="http://www.w3.org/2000/svg">
<mask id="mask0" mask-type="alpha" maskUnits="userSpaceOnUse" x="0" y="0" width="10" height="12">
<path fill-rule="evenodd" clip-rule="evenodd" d="M0 0H10V12H0V0Z" fill="white"/>
</mask>
<g mask="url(#mask0)">
<g filter="url(#filter0_d)">
<path fill-rule="evenodd" clip-rule="evenodd" d="M9.16667 4.70862V3.75C9.16667 1.68237 7.29736 0 5 0C2.70264 0 0.833333 1.68237 0.833333 3.75V4.70862C0.337604 4.96875 0 5.44716 0 6V10.5C0 11.3273 0.747465 12 1.66667 12H8.33333C9.25253 12 10 11.3273 10 10.5V6C10 5.44716 9.6624 4.96875 9.16667 4.70862ZM5 1.5C6.37858 1.5 7.5 2.50928 7.5 3.75V4.5H2.5V3.75C2.5 2.50928 3.62142 1.5 5 1.5ZM5.83333 8.708V9.75H4.16667V8.708C3.91264 8.50206 3.75 8.20691 3.75 7.875C3.75 7.25366 4.30962 6.75 5 6.75C5.69038 6.75 6.25 7.25366 6.25 7.875C6.25 8.20691 6.08736 8.50206 5.83333 8.708Z" fill="#5c6873"/>
</g>
</g>
<defs>
<filter id="filter0_d" x="-4" y="0" width="18" height="20" filterUnits="userSpaceOnUse" color-interpolation-filters="sRGB">
<feFlood flood-opacity="0" result="BackgroundImageFix"/>
<feColorMatrix in="SourceAlpha" type="matrix" values="0 0 0 0 0 0 0 0 0 0 0 0 0 0 0 0 0 0 127 0"/>
<feOffset dy="4"/>
<feGaussianBlur stdDeviation="2"/>
<feColorMatrix type="matrix" values="0 0 0 0 0 0 0 0 0 0 0 0 0 0 0 0 0 0 0.25 0"/>
<feBlend mode="normal" in2="BackgroundImageFix" result="effect1_dropShadow"/>
<feBlend mode="normal" in="SourceGraphic" in2="effect1_dropShadow" result="shape"/>
</filter>
</defs>
</svg>
